<svg xmlns="http://www.w3.org/2000/svg" viewBox="0 0 490 490" xml:space="preserve" transform="rotate(180)"><path d="M53.8 444.15h382.4c29.7 0 53.8-24.1 53.8-53.8v-228.7c0-29.7-24.1-53.8-53.8-53.8h-111c-6.8 0-12.3 5.5-12.3 12.3s5.5 12.3 12.3 12.3h111c16.2 0 29.3 13.1 29.3 29.3v228.7c0 16.2-13.1 29.3-29.3 29.3H53.8c-16.2 0-29.3-13.1-29.3-29.3v-228.8c0-16.2 13.1-29.3 29.3-29.3h161.6l-41.1 41.1c-4.8 4.8-4.8 12.5 0 17.3 2.4 2.4 5.5 3.6 8.7 3.6s6.3-1.2 8.7-3.6l62-62c4.8-4.8 4.8-12.5 0-17.3l-62-62c-4.8-4.8-12.5-4.8-17.3 0s-4.8 12.5 0 17.3l41.1 41.1H53.8c-29.7 0-53.8 24.1-53.8 53.8v228.7c0 29.6 24.1 53.8 53.8 53.8" fill="#fff"/></svg>