<svg xmlns="http://www.w3.org/2000/svg" viewBox="0 0 24 24" width="24" height="24"><g fill="#fff"><path d="m13.912 20.826-7.153-4.345V7.523l7.153-4.345zM2.433 7.819h2.414v8.24H2.433zM15.342.638a.96.96 0 0 0-.966.014l-8.639 5.25H1.472a.954.954 0 0 0-.956.956v10.158c0 .53.426.956.956.956h4.059l8.841 5.372a.95.95 0 0 0 .966.014.96.96 0 0 0 .488-.834V1.472a.94.94 0 0 0-.483-.834m6.009 5.151a.955.955 0 0 0-1.35-.122.955.955 0 0 0-.122 1.35c2.288 2.752 2.288 7.224 0 9.975a.963.963 0 0 0 .122 1.35c.178.15.914.399 1.35-.127 2.836-3.44 2.85-9 0-12.426"/><path d="M18.858 8.784a.955.955 0 0 0-1.35-.122.955.955 0 0 0-.122 1.35c.896 1.078.896 2.902 0 3.98-.337.408-.296 1.022.122 1.35.502.389 1.158.103 1.35-.127 1.496-1.805 1.496-4.626 0-6.431"/></g></svg>